<mxfile host="app.diagrams.net" agent="Mozilla/5.0 (Windows NT 10.0; Win64; x64) AppleWebKit/537.36 (KHTML, like Gecko) Chrome/127.0.0.0 Safari/537.36 Edg/127.0.0.0" version="24.7.6">
  <diagram name="Page-1" id="x0bj10DdfUokrIcwnYvV">
    <mxGraphModel dx="3204" dy="1318" grid="1" gridSize="10" guides="1" tooltips="1" connect="1" arrows="1" fold="1" page="1" pageScale="1" pageWidth="827" pageHeight="1169" math="0" shadow="0">
      <root>
        <mxCell id="0" />
        <mxCell id="1" parent="0" />
        <mxCell id="o5X1qBVQpSu6JsWsL4Iy-5" style="edgeStyle=orthogonalEdgeStyle;rounded=0;orthogonalLoop=1;jettySize=auto;html=1;exitX=0;exitY=0.5;exitDx=0;exitDy=0;entryX=0.5;entryY=0;entryDx=0;entryDy=0;" edge="1" parent="1" source="o5X1qBVQpSu6JsWsL4Iy-1" target="o5X1qBVQpSu6JsWsL4Iy-2">
          <mxGeometry relative="1" as="geometry" />
        </mxCell>
        <mxCell id="o5X1qBVQpSu6JsWsL4Iy-6" style="edgeStyle=orthogonalEdgeStyle;rounded=0;orthogonalLoop=1;jettySize=auto;html=1;exitX=1;exitY=0.5;exitDx=0;exitDy=0;entryX=0.5;entryY=0;entryDx=0;entryDy=0;" edge="1" parent="1" source="o5X1qBVQpSu6JsWsL4Iy-1" target="o5X1qBVQpSu6JsWsL4Iy-3">
          <mxGeometry relative="1" as="geometry">
            <Array as="points">
              <mxPoint x="840" y="60" />
              <mxPoint x="840" y="160" />
            </Array>
          </mxGeometry>
        </mxCell>
        <mxCell id="o5X1qBVQpSu6JsWsL4Iy-20" style="edgeStyle=orthogonalEdgeStyle;rounded=0;orthogonalLoop=1;jettySize=auto;html=1;exitX=0.5;exitY=1;exitDx=0;exitDy=0;entryX=0.5;entryY=0;entryDx=0;entryDy=0;" edge="1" parent="1" source="o5X1qBVQpSu6JsWsL4Iy-1" target="o5X1qBVQpSu6JsWsL4Iy-18">
          <mxGeometry relative="1" as="geometry" />
        </mxCell>
        <mxCell id="o5X1qBVQpSu6JsWsL4Iy-1" value="Frontend" style="rounded=0;whiteSpace=wrap;html=1;" vertex="1" parent="1">
          <mxGeometry x="320" y="40" width="160" height="40" as="geometry" />
        </mxCell>
        <mxCell id="o5X1qBVQpSu6JsWsL4Iy-11" style="edgeStyle=orthogonalEdgeStyle;rounded=0;orthogonalLoop=1;jettySize=auto;html=1;exitX=0;exitY=0.5;exitDx=0;exitDy=0;" edge="1" parent="1" source="o5X1qBVQpSu6JsWsL4Iy-2" target="o5X1qBVQpSu6JsWsL4Iy-10">
          <mxGeometry relative="1" as="geometry" />
        </mxCell>
        <mxCell id="o5X1qBVQpSu6JsWsL4Iy-12" style="edgeStyle=orthogonalEdgeStyle;rounded=0;orthogonalLoop=1;jettySize=auto;html=1;exitX=0.5;exitY=1;exitDx=0;exitDy=0;entryX=0.5;entryY=0;entryDx=0;entryDy=0;" edge="1" parent="1" source="o5X1qBVQpSu6JsWsL4Iy-2" target="o5X1qBVQpSu6JsWsL4Iy-9">
          <mxGeometry relative="1" as="geometry" />
        </mxCell>
        <mxCell id="o5X1qBVQpSu6JsWsL4Iy-13" style="edgeStyle=orthogonalEdgeStyle;rounded=0;orthogonalLoop=1;jettySize=auto;html=1;exitX=1;exitY=0.5;exitDx=0;exitDy=0;entryX=0.5;entryY=0;entryDx=0;entryDy=0;" edge="1" parent="1" source="o5X1qBVQpSu6JsWsL4Iy-2" target="o5X1qBVQpSu6JsWsL4Iy-8">
          <mxGeometry relative="1" as="geometry" />
        </mxCell>
        <mxCell id="o5X1qBVQpSu6JsWsL4Iy-2" value="Authentification" style="rounded=0;whiteSpace=wrap;html=1;" vertex="1" parent="1">
          <mxGeometry x="-100" y="160" width="120" height="40" as="geometry" />
        </mxCell>
        <mxCell id="o5X1qBVQpSu6JsWsL4Iy-29" style="edgeStyle=orthogonalEdgeStyle;rounded=0;orthogonalLoop=1;jettySize=auto;html=1;exitX=0.5;exitY=1;exitDx=0;exitDy=0;entryX=0.5;entryY=0;entryDx=0;entryDy=0;" edge="1" parent="1" source="o5X1qBVQpSu6JsWsL4Iy-3" target="o5X1qBVQpSu6JsWsL4Iy-21">
          <mxGeometry relative="1" as="geometry" />
        </mxCell>
        <mxCell id="o5X1qBVQpSu6JsWsL4Iy-30" style="edgeStyle=orthogonalEdgeStyle;rounded=0;orthogonalLoop=1;jettySize=auto;html=1;exitX=0.5;exitY=1;exitDx=0;exitDy=0;entryX=0.5;entryY=0;entryDx=0;entryDy=0;" edge="1" parent="1" source="o5X1qBVQpSu6JsWsL4Iy-3" target="o5X1qBVQpSu6JsWsL4Iy-22">
          <mxGeometry relative="1" as="geometry" />
        </mxCell>
        <mxCell id="o5X1qBVQpSu6JsWsL4Iy-31" style="edgeStyle=orthogonalEdgeStyle;rounded=0;orthogonalLoop=1;jettySize=auto;html=1;exitX=0.5;exitY=1;exitDx=0;exitDy=0;" edge="1" parent="1" source="o5X1qBVQpSu6JsWsL4Iy-3" target="o5X1qBVQpSu6JsWsL4Iy-23">
          <mxGeometry relative="1" as="geometry">
            <Array as="points">
              <mxPoint x="840" y="220" />
              <mxPoint x="900" y="220" />
            </Array>
          </mxGeometry>
        </mxCell>
        <mxCell id="o5X1qBVQpSu6JsWsL4Iy-32" style="edgeStyle=orthogonalEdgeStyle;rounded=0;orthogonalLoop=1;jettySize=auto;html=1;exitX=0.5;exitY=1;exitDx=0;exitDy=0;entryX=0.5;entryY=0;entryDx=0;entryDy=0;" edge="1" parent="1" source="o5X1qBVQpSu6JsWsL4Iy-3" target="o5X1qBVQpSu6JsWsL4Iy-24">
          <mxGeometry relative="1" as="geometry" />
        </mxCell>
        <mxCell id="o5X1qBVQpSu6JsWsL4Iy-33" style="edgeStyle=orthogonalEdgeStyle;rounded=0;orthogonalLoop=1;jettySize=auto;html=1;exitX=0.5;exitY=1;exitDx=0;exitDy=0;" edge="1" parent="1" source="o5X1qBVQpSu6JsWsL4Iy-3" target="o5X1qBVQpSu6JsWsL4Iy-25">
          <mxGeometry relative="1" as="geometry" />
        </mxCell>
        <mxCell id="o5X1qBVQpSu6JsWsL4Iy-49" style="edgeStyle=orthogonalEdgeStyle;rounded=0;orthogonalLoop=1;jettySize=auto;html=1;exitX=0.5;exitY=1;exitDx=0;exitDy=0;entryX=0.5;entryY=0;entryDx=0;entryDy=0;" edge="1" parent="1" source="o5X1qBVQpSu6JsWsL4Iy-3" target="o5X1qBVQpSu6JsWsL4Iy-37">
          <mxGeometry relative="1" as="geometry" />
        </mxCell>
        <mxCell id="o5X1qBVQpSu6JsWsL4Iy-50" style="edgeStyle=orthogonalEdgeStyle;rounded=0;orthogonalLoop=1;jettySize=auto;html=1;exitX=0.5;exitY=1;exitDx=0;exitDy=0;entryX=0.5;entryY=0;entryDx=0;entryDy=0;" edge="1" parent="1" source="o5X1qBVQpSu6JsWsL4Iy-3" target="o5X1qBVQpSu6JsWsL4Iy-38">
          <mxGeometry relative="1" as="geometry" />
        </mxCell>
        <mxCell id="o5X1qBVQpSu6JsWsL4Iy-3" value="Application" style="rounded=0;whiteSpace=wrap;html=1;" vertex="1" parent="1">
          <mxGeometry x="780" y="160" width="120" height="40" as="geometry" />
        </mxCell>
        <mxCell id="o5X1qBVQpSu6JsWsL4Iy-15" style="edgeStyle=orthogonalEdgeStyle;rounded=0;orthogonalLoop=1;jettySize=auto;html=1;exitX=0.5;exitY=1;exitDx=0;exitDy=0;entryX=0.5;entryY=0;entryDx=0;entryDy=0;" edge="1" parent="1" source="o5X1qBVQpSu6JsWsL4Iy-8" target="o5X1qBVQpSu6JsWsL4Iy-14">
          <mxGeometry relative="1" as="geometry" />
        </mxCell>
        <mxCell id="o5X1qBVQpSu6JsWsL4Iy-8" value="S&#39;inscrire" style="rounded=0;whiteSpace=wrap;html=1;" vertex="1" parent="1">
          <mxGeometry x="60" y="240" width="120" height="40" as="geometry" />
        </mxCell>
        <mxCell id="o5X1qBVQpSu6JsWsL4Iy-42" style="edgeStyle=orthogonalEdgeStyle;rounded=0;orthogonalLoop=1;jettySize=auto;html=1;exitX=1;exitY=0.5;exitDx=0;exitDy=0;" edge="1" parent="1" source="o5X1qBVQpSu6JsWsL4Iy-9" target="o5X1qBVQpSu6JsWsL4Iy-8">
          <mxGeometry relative="1" as="geometry" />
        </mxCell>
        <mxCell id="o5X1qBVQpSu6JsWsL4Iy-9" value="Se connecter" style="rounded=0;whiteSpace=wrap;html=1;" vertex="1" parent="1">
          <mxGeometry x="-100" y="240" width="120" height="40" as="geometry" />
        </mxCell>
        <mxCell id="o5X1qBVQpSu6JsWsL4Iy-43" style="edgeStyle=orthogonalEdgeStyle;rounded=0;orthogonalLoop=1;jettySize=auto;html=1;exitX=1;exitY=0.5;exitDx=0;exitDy=0;entryX=0;entryY=0.5;entryDx=0;entryDy=0;" edge="1" parent="1" source="o5X1qBVQpSu6JsWsL4Iy-10" target="o5X1qBVQpSu6JsWsL4Iy-9">
          <mxGeometry relative="1" as="geometry" />
        </mxCell>
        <mxCell id="o5X1qBVQpSu6JsWsL4Iy-10" value="Bienvenue" style="rounded=0;whiteSpace=wrap;html=1;" vertex="1" parent="1">
          <mxGeometry x="-260" y="240" width="120" height="40" as="geometry" />
        </mxCell>
        <mxCell id="o5X1qBVQpSu6JsWsL4Iy-14" value="CrÃ©er profil" style="rounded=0;whiteSpace=wrap;html=1;" vertex="1" parent="1">
          <mxGeometry x="60" y="320" width="120" height="40" as="geometry" />
        </mxCell>
        <mxCell id="o5X1qBVQpSu6JsWsL4Iy-18" value="Choisir profil" style="rounded=0;whiteSpace=wrap;html=1;" vertex="1" parent="1">
          <mxGeometry x="340" y="160" width="120" height="40" as="geometry" />
        </mxCell>
        <mxCell id="o5X1qBVQpSu6JsWsL4Iy-34" style="edgeStyle=orthogonalEdgeStyle;rounded=0;orthogonalLoop=1;jettySize=auto;html=1;exitX=0.5;exitY=1;exitDx=0;exitDy=0;" edge="1" parent="1" source="o5X1qBVQpSu6JsWsL4Iy-21" target="o5X1qBVQpSu6JsWsL4Iy-26">
          <mxGeometry relative="1" as="geometry" />
        </mxCell>
        <mxCell id="o5X1qBVQpSu6JsWsL4Iy-52" style="edgeStyle=orthogonalEdgeStyle;rounded=0;orthogonalLoop=1;jettySize=auto;html=1;exitX=0.5;exitY=1;exitDx=0;exitDy=0;" edge="1" parent="1" source="o5X1qBVQpSu6JsWsL4Iy-21" target="o5X1qBVQpSu6JsWsL4Iy-41">
          <mxGeometry relative="1" as="geometry">
            <Array as="points">
              <mxPoint x="620" y="280" />
              <mxPoint x="620" y="320" />
              <mxPoint x="1140" y="320" />
            </Array>
          </mxGeometry>
        </mxCell>
        <mxCell id="o5X1qBVQpSu6JsWsL4Iy-61" style="edgeStyle=orthogonalEdgeStyle;rounded=0;orthogonalLoop=1;jettySize=auto;html=1;exitX=0.25;exitY=1;exitDx=0;exitDy=0;entryX=0;entryY=0.5;entryDx=0;entryDy=0;" edge="1" parent="1" source="o5X1qBVQpSu6JsWsL4Iy-21" target="o5X1qBVQpSu6JsWsL4Iy-59">
          <mxGeometry relative="1" as="geometry">
            <Array as="points">
              <mxPoint x="540" y="280" />
              <mxPoint x="540" y="460" />
            </Array>
          </mxGeometry>
        </mxCell>
        <mxCell id="o5X1qBVQpSu6JsWsL4Iy-21" value="Parcourir" style="rounded=0;whiteSpace=wrap;html=1;" vertex="1" parent="1">
          <mxGeometry x="520" y="240" width="120" height="40" as="geometry" />
        </mxCell>
        <mxCell id="o5X1qBVQpSu6JsWsL4Iy-27" style="edgeStyle=orthogonalEdgeStyle;rounded=0;orthogonalLoop=1;jettySize=auto;html=1;exitX=0.5;exitY=1;exitDx=0;exitDy=0;" edge="1" parent="1" source="o5X1qBVQpSu6JsWsL4Iy-22" target="o5X1qBVQpSu6JsWsL4Iy-26">
          <mxGeometry relative="1" as="geometry" />
        </mxCell>
        <mxCell id="o5X1qBVQpSu6JsWsL4Iy-51" style="edgeStyle=orthogonalEdgeStyle;rounded=0;orthogonalLoop=1;jettySize=auto;html=1;exitX=0.5;exitY=1;exitDx=0;exitDy=0;entryX=0.5;entryY=0;entryDx=0;entryDy=0;" edge="1" parent="1" source="o5X1qBVQpSu6JsWsL4Iy-22" target="o5X1qBVQpSu6JsWsL4Iy-40">
          <mxGeometry relative="1" as="geometry" />
        </mxCell>
        <mxCell id="o5X1qBVQpSu6JsWsL4Iy-62" style="edgeStyle=orthogonalEdgeStyle;rounded=0;orthogonalLoop=1;jettySize=auto;html=1;exitX=0.25;exitY=1;exitDx=0;exitDy=0;entryX=1;entryY=0.5;entryDx=0;entryDy=0;" edge="1" parent="1" source="o5X1qBVQpSu6JsWsL4Iy-22" target="o5X1qBVQpSu6JsWsL4Iy-59">
          <mxGeometry relative="1" as="geometry" />
        </mxCell>
        <mxCell id="o5X1qBVQpSu6JsWsL4Iy-22" value="Films" style="rounded=0;whiteSpace=wrap;html=1;" vertex="1" parent="1">
          <mxGeometry x="680" y="240" width="120" height="40" as="geometry" />
        </mxCell>
        <mxCell id="o5X1qBVQpSu6JsWsL4Iy-55" style="edgeStyle=orthogonalEdgeStyle;rounded=0;orthogonalLoop=1;jettySize=auto;html=1;exitX=0.75;exitY=1;exitDx=0;exitDy=0;entryX=0.5;entryY=0;entryDx=0;entryDy=0;" edge="1" parent="1" source="o5X1qBVQpSu6JsWsL4Iy-23" target="o5X1qBVQpSu6JsWsL4Iy-40">
          <mxGeometry relative="1" as="geometry" />
        </mxCell>
        <mxCell id="o5X1qBVQpSu6JsWsL4Iy-63" style="edgeStyle=orthogonalEdgeStyle;rounded=0;orthogonalLoop=1;jettySize=auto;html=1;exitX=0.5;exitY=1;exitDx=0;exitDy=0;entryX=1;entryY=0.5;entryDx=0;entryDy=0;" edge="1" parent="1" source="o5X1qBVQpSu6JsWsL4Iy-23" target="o5X1qBVQpSu6JsWsL4Iy-59">
          <mxGeometry relative="1" as="geometry" />
        </mxCell>
        <mxCell id="o5X1qBVQpSu6JsWsL4Iy-23" value="Series" style="rounded=0;whiteSpace=wrap;html=1;" vertex="1" parent="1">
          <mxGeometry x="840" y="240" width="120" height="40" as="geometry" />
        </mxCell>
        <mxCell id="o5X1qBVQpSu6JsWsL4Iy-35" style="edgeStyle=orthogonalEdgeStyle;rounded=0;orthogonalLoop=1;jettySize=auto;html=1;exitX=0.5;exitY=1;exitDx=0;exitDy=0;entryX=0.5;entryY=0;entryDx=0;entryDy=0;" edge="1" parent="1" source="o5X1qBVQpSu6JsWsL4Iy-24" target="o5X1qBVQpSu6JsWsL4Iy-26">
          <mxGeometry relative="1" as="geometry">
            <Array as="points">
              <mxPoint x="1060" y="300" />
              <mxPoint x="620" y="300" />
            </Array>
          </mxGeometry>
        </mxCell>
        <mxCell id="o5X1qBVQpSu6JsWsL4Iy-24" value="Recherche" style="rounded=0;whiteSpace=wrap;html=1;" vertex="1" parent="1">
          <mxGeometry x="1000" y="240" width="120" height="40" as="geometry" />
        </mxCell>
        <mxCell id="o5X1qBVQpSu6JsWsL4Iy-56" style="edgeStyle=orthogonalEdgeStyle;rounded=0;orthogonalLoop=1;jettySize=auto;html=1;exitX=0.5;exitY=1;exitDx=0;exitDy=0;entryX=0.5;entryY=0;entryDx=0;entryDy=0;" edge="1" parent="1" source="o5X1qBVQpSu6JsWsL4Iy-25" target="o5X1qBVQpSu6JsWsL4Iy-26">
          <mxGeometry relative="1" as="geometry">
            <Array as="points">
              <mxPoint x="1220" y="300" />
              <mxPoint x="620" y="300" />
            </Array>
          </mxGeometry>
        </mxCell>
        <mxCell id="o5X1qBVQpSu6JsWsL4Iy-65" style="edgeStyle=orthogonalEdgeStyle;rounded=0;orthogonalLoop=1;jettySize=auto;html=1;exitX=0.75;exitY=1;exitDx=0;exitDy=0;entryX=0;entryY=0.5;entryDx=0;entryDy=0;" edge="1" parent="1" source="o5X1qBVQpSu6JsWsL4Iy-25" target="o5X1qBVQpSu6JsWsL4Iy-64">
          <mxGeometry relative="1" as="geometry">
            <Array as="points">
              <mxPoint x="1240" y="280" />
              <mxPoint x="1240" y="380" />
            </Array>
          </mxGeometry>
        </mxCell>
        <mxCell id="o5X1qBVQpSu6JsWsL4Iy-25" value="Profil" style="rounded=0;whiteSpace=wrap;html=1;" vertex="1" parent="1">
          <mxGeometry x="1160" y="240" width="120" height="40" as="geometry" />
        </mxCell>
        <mxCell id="o5X1qBVQpSu6JsWsL4Iy-60" style="edgeStyle=orthogonalEdgeStyle;rounded=0;orthogonalLoop=1;jettySize=auto;html=1;exitX=0.5;exitY=1;exitDx=0;exitDy=0;entryX=0.5;entryY=0;entryDx=0;entryDy=0;" edge="1" parent="1" source="o5X1qBVQpSu6JsWsL4Iy-26" target="o5X1qBVQpSu6JsWsL4Iy-59">
          <mxGeometry relative="1" as="geometry" />
        </mxCell>
        <mxCell id="o5X1qBVQpSu6JsWsL4Iy-26" value="Work" style="rounded=0;whiteSpace=wrap;html=1;" vertex="1" parent="1">
          <mxGeometry x="560" y="360" width="120" height="40" as="geometry" />
        </mxCell>
        <mxCell id="o5X1qBVQpSu6JsWsL4Iy-53" style="edgeStyle=orthogonalEdgeStyle;rounded=0;orthogonalLoop=1;jettySize=auto;html=1;exitX=0.5;exitY=1;exitDx=0;exitDy=0;entryX=0.5;entryY=0;entryDx=0;entryDy=0;" edge="1" parent="1" source="o5X1qBVQpSu6JsWsL4Iy-37" target="o5X1qBVQpSu6JsWsL4Iy-26">
          <mxGeometry relative="1" as="geometry">
            <Array as="points">
              <mxPoint x="1380" y="300" />
              <mxPoint x="620" y="300" />
            </Array>
          </mxGeometry>
        </mxCell>
        <mxCell id="o5X1qBVQpSu6JsWsL4Iy-57" style="edgeStyle=orthogonalEdgeStyle;rounded=0;orthogonalLoop=1;jettySize=auto;html=1;exitX=0.75;exitY=1;exitDx=0;exitDy=0;entryX=0.5;entryY=0;entryDx=0;entryDy=0;" edge="1" parent="1" source="o5X1qBVQpSu6JsWsL4Iy-37" target="o5X1qBVQpSu6JsWsL4Iy-41">
          <mxGeometry relative="1" as="geometry" />
        </mxCell>
        <mxCell id="o5X1qBVQpSu6JsWsL4Iy-37" value="ChaÃ®nes" style="rounded=0;whiteSpace=wrap;html=1;" vertex="1" parent="1">
          <mxGeometry x="1320" y="240" width="120" height="40" as="geometry" />
        </mxCell>
        <mxCell id="o5X1qBVQpSu6JsWsL4Iy-54" style="edgeStyle=orthogonalEdgeStyle;rounded=0;orthogonalLoop=1;jettySize=auto;html=1;exitX=0.5;exitY=1;exitDx=0;exitDy=0;" edge="1" parent="1" source="o5X1qBVQpSu6JsWsL4Iy-38">
          <mxGeometry relative="1" as="geometry">
            <mxPoint x="620" y="360" as="targetPoint" />
            <Array as="points">
              <mxPoint x="1540" y="300" />
              <mxPoint x="621" y="300" />
            </Array>
          </mxGeometry>
        </mxCell>
        <mxCell id="o5X1qBVQpSu6JsWsL4Iy-58" style="edgeStyle=orthogonalEdgeStyle;rounded=0;orthogonalLoop=1;jettySize=auto;html=1;exitX=0.75;exitY=1;exitDx=0;exitDy=0;entryX=0.5;entryY=0;entryDx=0;entryDy=0;" edge="1" parent="1" source="o5X1qBVQpSu6JsWsL4Iy-38" target="o5X1qBVQpSu6JsWsL4Iy-40">
          <mxGeometry relative="1" as="geometry">
            <Array as="points">
              <mxPoint x="1560" y="280" />
              <mxPoint x="1560" y="340" />
              <mxPoint x="830" y="340" />
            </Array>
          </mxGeometry>
        </mxCell>
        <mxCell id="o5X1qBVQpSu6JsWsL4Iy-38" value="Genres" style="rounded=0;whiteSpace=wrap;html=1;" vertex="1" parent="1">
          <mxGeometry x="1480" y="240" width="120" height="40" as="geometry" />
        </mxCell>
        <mxCell id="o5X1qBVQpSu6JsWsL4Iy-40" value="Genre" style="rounded=0;whiteSpace=wrap;html=1;" vertex="1" parent="1">
          <mxGeometry x="770" y="400" width="120" height="40" as="geometry" />
        </mxCell>
        <mxCell id="o5X1qBVQpSu6JsWsL4Iy-41" value="ChaÃ®ne" style="rounded=0;whiteSpace=wrap;html=1;" vertex="1" parent="1">
          <mxGeometry x="1080" y="360" width="120" height="40" as="geometry" />
        </mxCell>
        <mxCell id="o5X1qBVQpSu6JsWsL4Iy-59" value="Regarder" style="rounded=0;whiteSpace=wrap;html=1;" vertex="1" parent="1">
          <mxGeometry x="560" y="440" width="120" height="40" as="geometry" />
        </mxCell>
        <mxCell id="o5X1qBVQpSu6JsWsL4Iy-64" value="S&#39;abonner" style="rounded=0;whiteSpace=wrap;html=1;" vertex="1" parent="1">
          <mxGeometry x="1280" y="360" width="120" height="40" as="geometry" />
        </mxCell>
      </root>
    </mxGraphModel>
  </diagram>
</mxfile>
